<mxfile host="65bd71144e">
    <diagram id="1KCs2270RD2fHTfazo3g" name="Page-1">
        <mxGraphModel dx="1214" dy="611" grid="1" gridSize="10" guides="1" tooltips="1" connect="1" arrows="1" fold="1" page="1" pageScale="1" pageWidth="827" pageHeight="1169" background="#999999" math="0" shadow="1">
            <root>
                <mxCell id="0"/>
                <mxCell id="1" parent="0"/>
                <mxCell id="3" value="Mod Suite&lt;br&gt;Core" style="ellipse;whiteSpace=wrap;html=1;fillColor=#6a00ff;fontColor=#ffffff;strokeColor=#3700CC;gradientColor=#CC0066;" parent="1" vertex="1">
                    <mxGeometry x="400" y="520" width="80" height="80" as="geometry"/>
                </mxCell>
                <mxCell id="26" style="edgeStyle=none;html=1;exitX=0;exitY=0.5;exitDx=0;exitDy=0;entryX=1;entryY=0.5;entryDx=0;entryDy=0;fontColor=#000000;" parent="1" source="4" target="3" edge="1">
                    <mxGeometry relative="1" as="geometry"/>
                </mxCell>
                <mxCell id="78" style="edgeStyle=none;curved=1;jumpStyle=arc;html=1;exitX=0;exitY=1;exitDx=0;exitDy=0;strokeWidth=2;fontSize=7;fontColor=#FF3333;startArrow=oval;startFill=0;targetPerimeterSpacing=0;" parent="1" source="4" target="13" edge="1">
                    <mxGeometry relative="1" as="geometry"/>
                </mxCell>
                <mxCell id="4" value="&lt;font color=&quot;#cc0066&quot;&gt;&lt;b&gt;Biological&lt;br&gt;Manufactory&lt;/b&gt;&lt;/font&gt;" style="ellipse;whiteSpace=wrap;html=1;fillColor=#00FF80;fontColor=#ffffff;strokeColor=#3700CC;gradientColor=#009900;gradientDirection=radial;" parent="1" vertex="1">
                    <mxGeometry x="600" y="520" width="80" height="80" as="geometry"/>
                </mxCell>
                <mxCell id="25" style="edgeStyle=none;html=1;exitX=0.5;exitY=1;exitDx=0;exitDy=0;entryX=0.5;entryY=0;entryDx=0;entryDy=0;fontColor=#000000;" parent="1" source="6" target="3" edge="1">
                    <mxGeometry relative="1" as="geometry"/>
                </mxCell>
                <mxCell id="82" style="edgeStyle=none;curved=1;jumpStyle=arc;html=1;exitX=0;exitY=1;exitDx=0;exitDy=0;entryX=0;entryY=0;entryDx=0;entryDy=0;strokeWidth=2;fontSize=7;fontColor=#FF9933;startArrow=oval;startFill=0;targetPerimeterSpacing=0;" parent="1" source="6" target="11" edge="1">
                    <mxGeometry relative="1" as="geometry">
                        <Array as="points">
                            <mxPoint x="320" y="560"/>
                        </Array>
                    </mxGeometry>
                </mxCell>
                <mxCell id="6" value="Chemical Constructions" style="ellipse;whiteSpace=wrap;html=1;fillColor=#d5e8d4;strokeColor=#82b366;gradientColor=#006600;gradientDirection=radial;strokeWidth=3;" parent="1" vertex="1">
                    <mxGeometry x="400" y="360" width="80" height="80" as="geometry"/>
                </mxCell>
                <mxCell id="24" style="edgeStyle=none;html=1;exitX=1;exitY=0.5;exitDx=0;exitDy=0;entryX=0;entryY=0.5;entryDx=0;entryDy=0;fontColor=#000000;startArrow=none;" parent="1" source="9" target="3" edge="1">
                    <mxGeometry relative="1" as="geometry"/>
                </mxCell>
                <mxCell id="77" style="edgeStyle=none;curved=1;jumpStyle=arc;html=1;exitX=1;exitY=1;exitDx=0;exitDy=0;entryX=0.05;entryY=0.295;entryDx=0;entryDy=0;entryPerimeter=0;strokeWidth=2;fontSize=7;fontColor=#FF3333;startArrow=oval;startFill=0;targetPerimeterSpacing=0;" parent="1" source="8" target="13" edge="1">
                    <mxGeometry relative="1" as="geometry"/>
                </mxCell>
                <mxCell id="8" value="Sky Atlas&lt;br&gt;Metallurgy" style="ellipse;whiteSpace=wrap;html=1;fillColor=#FFFF33;fontColor=#000000;strokeColor=#3700CC;gradientColor=#CC0000;gradientDirection=radial;" parent="1" vertex="1">
                    <mxGeometry x="80" y="520" width="80" height="80" as="geometry"/>
                </mxCell>
                <mxCell id="27" style="edgeStyle=none;html=1;exitX=0.5;exitY=0;exitDx=0;exitDy=0;entryX=0.5;entryY=1;entryDx=0;entryDy=0;fontColor=#000000;startArrow=none;" parent="1" source="11" target="3" edge="1">
                    <mxGeometry relative="1" as="geometry"/>
                </mxCell>
                <mxCell id="72" style="edgeStyle=none;curved=1;jumpStyle=arc;html=1;exitX=0;exitY=0;exitDx=0;exitDy=0;entryX=1.023;entryY=0.43;entryDx=0;entryDy=0;fontSize=7;fontColor=#CC0000;startArrow=diamondThin;startFill=1;entryPerimeter=0;" parent="1" source="10" target="9" edge="1">
                    <mxGeometry relative="1" as="geometry">
                        <Array as="points">
                            <mxPoint x="340" y="600"/>
                        </Array>
                    </mxGeometry>
                </mxCell>
                <mxCell id="79" style="edgeStyle=none;curved=1;jumpStyle=arc;html=1;exitX=1;exitY=0;exitDx=0;exitDy=0;entryX=0.457;entryY=0.825;entryDx=0;entryDy=0;entryPerimeter=0;strokeWidth=2;fontSize=7;fontColor=#FF3333;startArrow=oval;startFill=0;targetPerimeterSpacing=0;" parent="1" source="10" target="17" edge="1">
                    <mxGeometry relative="1" as="geometry">
                        <Array as="points">
                            <mxPoint x="540" y="580"/>
                        </Array>
                    </mxGeometry>
                </mxCell>
                <mxCell id="10" value="&lt;font color=&quot;#3333ff&quot;&gt;Power Production&lt;/font&gt;" style="ellipse;whiteSpace=wrap;html=1;fillColor=#fff2cc;strokeColor=#d6b656;gradientColor=#ffd966;gradientDirection=radial;" parent="1" vertex="1">
                    <mxGeometry x="400" y="820" width="80" height="80" as="geometry"/>
                </mxCell>
                <mxCell id="51" style="edgeStyle=none;curved=1;jumpStyle=arc;html=1;exitX=1;exitY=0;exitDx=0;exitDy=0;entryX=0;entryY=1;entryDx=0;entryDy=0;fontSize=7;fontColor=#4C0099;startArrow=none;" parent="1" source="13" target="3" edge="1">
                    <mxGeometry relative="1" as="geometry"/>
                </mxCell>
                <mxCell id="12" value="&lt;font color=&quot;#4c0099&quot;&gt;Military&lt;br&gt;Modifications&lt;/font&gt;" style="ellipse;whiteSpace=wrap;html=1;fillColor=#f8cecc;strokeColor=#b85450;gradientColor=#ea6b66;gradientDirection=radial;" parent="1" vertex="1">
                    <mxGeometry x="140" y="790" width="80" height="80" as="geometry"/>
                </mxCell>
                <mxCell id="48" style="edgeStyle=none;curved=1;jumpStyle=arc;html=1;exitX=0;exitY=0;exitDx=0;exitDy=0;fontSize=7;fontColor=#3333FF;" parent="1" source="15" target="6" edge="1">
                    <mxGeometry relative="1" as="geometry">
                        <mxPoint x="460" y="450" as="targetPoint"/>
                    </mxGeometry>
                </mxCell>
                <mxCell id="49" style="edgeStyle=none;curved=1;jumpStyle=arc;html=1;exitX=0.5;exitY=0;exitDx=0;exitDy=0;entryX=0.5;entryY=1;entryDx=0;entryDy=0;fontSize=7;fontColor=#CC0066;" parent="1" source="15" target="4" edge="1">
                    <mxGeometry relative="1" as="geometry"/>
                </mxCell>
                <mxCell id="67" style="edgeStyle=none;curved=1;jumpStyle=arc;html=1;exitX=0;exitY=1;exitDx=0;exitDy=0;fontSize=7;fontColor=#4C0099;startArrow=diamondThin;startFill=1;" parent="1" source="15" target="12" edge="1">
                    <mxGeometry relative="1" as="geometry">
                        <Array as="points">
                            <mxPoint x="440" y="820"/>
                        </Array>
                    </mxGeometry>
                </mxCell>
                <mxCell id="69" style="edgeStyle=none;curved=1;jumpStyle=arc;html=1;exitX=0;exitY=0;exitDx=0;exitDy=0;fontSize=7;fontColor=#990000;startArrow=diamondThin;startFill=1;" parent="1" source="16" target="15" edge="1">
                    <mxGeometry relative="1" as="geometry">
                        <mxPoint x="660" y="790" as="targetPoint"/>
                    </mxGeometry>
                </mxCell>
                <mxCell id="70" style="edgeStyle=none;curved=1;jumpStyle=arc;html=1;exitX=1;exitY=0;exitDx=0;exitDy=0;fontSize=7;fontColor=#990000;startArrow=diamondThin;startFill=1;" parent="1" source="16" target="5" edge="1">
                    <mxGeometry relative="1" as="geometry"/>
                </mxCell>
                <mxCell id="16" value="&lt;font color=&quot;#990000&quot;&gt;Cave systems&lt;/font&gt;" style="ellipse;whiteSpace=wrap;html=1;fillColor=#999900;strokeColor=#d6b656;gradientColor=#ffd966;gradientDirection=radial;" parent="1" vertex="1">
                    <mxGeometry x="680" y="800" width="80" height="80" as="geometry"/>
                </mxCell>
                <mxCell id="29" value="" style="edgeStyle=none;html=1;fontColor=#000000;exitX=0.172;exitY=0.507;exitDx=0;exitDy=0;exitPerimeter=0;fillColor=#dae8fc;gradientColor=#7ea6e0;strokeColor=#0000FF;endSize=10;startSize=10;jumpSize=12;jumpStyle=gap;curved=1;" parent="1" source="17" target="6" edge="1">
                    <mxGeometry relative="1" as="geometry"/>
                </mxCell>
                <mxCell id="33" style="edgeStyle=none;html=1;exitX=0.189;exitY=0.441;exitDx=0;exitDy=0;entryX=1;entryY=0;entryDx=0;entryDy=0;fontColor=#007FFF;jumpStyle=arc;curved=1;exitPerimeter=0;" parent="1" source="17" target="18" edge="1">
                    <mxGeometry relative="1" as="geometry">
                        <Array as="points">
                            <mxPoint x="430" y="290"/>
                        </Array>
                    </mxGeometry>
                </mxCell>
                <mxCell id="23" style="edgeStyle=none;html=1;exitX=0.5;exitY=1;exitDx=0;exitDy=0;fontColor=#000000;" parent="1" source="18" target="8" edge="1">
                    <mxGeometry relative="1" as="geometry"/>
                </mxCell>
                <mxCell id="28" style="edgeStyle=none;html=1;exitX=1;exitY=0.5;exitDx=0;exitDy=0;fontColor=#000000;" parent="1" source="18" target="6" edge="1">
                    <mxGeometry relative="1" as="geometry"/>
                </mxCell>
                <mxCell id="18" value="Metallurgy" style="ellipse;whiteSpace=wrap;html=1;gradientDirection=radial;fillColor=#fff2cc;strokeColor=#d6b656;gradientColor=#ffd966;fontColor=#000000;" parent="1" vertex="1">
                    <mxGeometry x="240" y="360" width="80" height="80" as="geometry"/>
                </mxCell>
                <mxCell id="22" style="edgeStyle=none;html=1;exitX=0.5;exitY=1;exitDx=0;exitDy=0;fontColor=#000000;" parent="1" source="20" target="18" edge="1">
                    <mxGeometry relative="1" as="geometry"/>
                </mxCell>
                <mxCell id="20" value="Blacksmithing" style="ellipse;whiteSpace=wrap;html=1;fillColor=default;strokeColor=#b85450;gradientColor=#FF3333;gradientDirection=radial;" parent="1" vertex="1">
                    <mxGeometry x="240" y="200" width="80" height="80" as="geometry"/>
                </mxCell>
                <mxCell id="80" style="edgeStyle=none;curved=1;jumpStyle=arc;html=1;exitX=1;exitY=0.5;exitDx=0;exitDy=0;strokeWidth=2;fontSize=7;fontColor=#FF3333;startArrow=oval;startFill=0;targetPerimeterSpacing=0;" parent="1" source="45" target="20" edge="1">
                    <mxGeometry relative="1" as="geometry"/>
                </mxCell>
                <mxCell id="45" value="&lt;font color=&quot;#000000&quot;&gt;Forging&lt;/font&gt;" style="ellipse;whiteSpace=wrap;html=1;aspect=fixed;fillColor=#FF3333;gradientColor=#CCCC00;strokeColor=#b85450;gradientDirection=radial;" parent="1" vertex="1">
                    <mxGeometry x="140" y="240" width="40" height="40" as="geometry"/>
                </mxCell>
                <mxCell id="47" value="" style="group" parent="1" vertex="1" connectable="0">
                    <mxGeometry x="790" y="460" width="160" height="200" as="geometry"/>
                </mxCell>
                <mxCell id="5" value="&lt;font color=&quot;#663300&quot;&gt;Arboretum&lt;br&gt;&quot;Breathe&lt;br&gt;Easy&quot;&lt;br&gt;&lt;/font&gt;" style="ellipse;whiteSpace=wrap;html=1;fillColor=#d5e8d4;strokeColor=#82b366;gradientColor=#00CC66;gradientDirection=radial;" parent="47" vertex="1">
                    <mxGeometry x="20" y="60" width="80" height="80" as="geometry"/>
                </mxCell>
                <mxCell id="44" style="edgeStyle=none;curved=1;jumpStyle=arc;html=1;exitX=0;exitY=0.5;exitDx=0;exitDy=0;fontSize=7;fontColor=#000000;entryX=0.01;entryY=0.353;entryDx=0;entryDy=0;entryPerimeter=0;" parent="47" source="37" target="5" edge="1">
                    <mxGeometry relative="1" as="geometry">
                        <mxPoint x="10" y="90" as="targetPoint"/>
                        <Array as="points">
                            <mxPoint x="10" y="40"/>
                            <mxPoint y="70"/>
                        </Array>
                    </mxGeometry>
                </mxCell>
                <mxCell id="37" value="&lt;font style=&quot;font-size: 8px;&quot; color=&quot;#007fff&quot;&gt;Agriculture&lt;/font&gt;" style="ellipse;whiteSpace=wrap;html=1;aspect=fixed;fillColor=#dae8fc;gradientColor=#7ea6e0;strokeColor=#6c8ebf;gradientDirection=radial;" parent="47" vertex="1">
                    <mxGeometry x="40" width="40" height="40" as="geometry"/>
                </mxCell>
                <mxCell id="38" value="&lt;font color=&quot;#00ffff&quot;&gt;Aqua&lt;br&gt;culture&lt;/font&gt;" style="ellipse;whiteSpace=wrap;html=1;aspect=fixed;fillColor=#f5f5f5;gradientColor=#004C99;strokeColor=#666666;gradientDirection=radial;" parent="47" vertex="1">
                    <mxGeometry x="40" y="160" width="40" height="40" as="geometry"/>
                </mxCell>
                <mxCell id="42" style="edgeStyle=none;curved=1;jumpStyle=arc;html=1;exitX=0.5;exitY=1;exitDx=0;exitDy=0;entryX=0.5;entryY=0;entryDx=0;entryDy=0;fontSize=7;fontColor=#000000;" parent="47" source="5" target="38" edge="1">
                    <mxGeometry relative="1" as="geometry"/>
                </mxCell>
                <mxCell id="43" style="edgeStyle=none;curved=1;jumpStyle=arc;html=1;exitX=0.5;exitY=0;exitDx=0;exitDy=0;fontSize=7;fontColor=#000000;entryX=1;entryY=0.5;entryDx=0;entryDy=0;" parent="47" source="39" target="37" edge="1">
                    <mxGeometry relative="1" as="geometry">
                        <Array as="points">
                            <mxPoint x="140" y="30"/>
                        </Array>
                    </mxGeometry>
                </mxCell>
                <mxCell id="39" value="&lt;font color=&quot;#000000&quot; style=&quot;font-size: 7px;&quot;&gt;Hydroponics&lt;/font&gt;" style="ellipse;whiteSpace=wrap;html=1;aspect=fixed;fillColor=#0066CC;gradientColor=#00FFFF;strokeColor=#666666;gradientDirection=radial;" parent="47" vertex="1">
                    <mxGeometry x="120" y="80" width="40" height="40" as="geometry"/>
                </mxCell>
                <mxCell id="41" style="edgeStyle=none;curved=1;jumpStyle=arc;html=1;exitX=1;exitY=0.5;exitDx=0;exitDy=0;fontSize=7;fontColor=#000000;" parent="47" source="5" target="39" edge="1">
                    <mxGeometry relative="1" as="geometry"/>
                </mxCell>
                <mxCell id="40" style="edgeStyle=none;curved=1;jumpStyle=arc;html=1;exitX=1;exitY=0;exitDx=0;exitDy=0;fontSize=7;fontColor=#000000;entryX=0.5;entryY=1;entryDx=0;entryDy=0;" parent="47" source="38" target="39" edge="1">
                    <mxGeometry relative="1" as="geometry">
                        <mxPoint x="150" y="130" as="targetPoint"/>
                        <Array as="points">
                            <mxPoint x="130" y="170"/>
                        </Array>
                    </mxGeometry>
                </mxCell>
                <mxCell id="63" value="" style="edgeStyle=none;curved=1;jumpStyle=arc;html=1;exitX=0;exitY=1;exitDx=0;exitDy=0;fontSize=7;fontColor=#CC0066;endArrow=none;" parent="1" source="5" target="62" edge="1">
                    <mxGeometry relative="1" as="geometry">
                        <mxPoint x="731.7157287525381" y="588.2842712474619" as="sourcePoint"/>
                        <mxPoint x="628.284271247456" y="691.715728752544" as="targetPoint"/>
                    </mxGeometry>
                </mxCell>
                <mxCell id="68" value="" style="group" parent="1" vertex="1" connectable="0">
                    <mxGeometry x="590" y="640" width="160" height="110" as="geometry"/>
                </mxCell>
                <mxCell id="15" value="Arch&lt;br&gt;Demons" style="ellipse;whiteSpace=wrap;html=1;fillColor=#FF99FF;strokeColor=#996185;gradientColor=#660066;gradientDirection=radial;" parent="68" vertex="1">
                    <mxGeometry y="30" width="80" height="80" as="geometry"/>
                </mxCell>
                <mxCell id="50" style="edgeStyle=none;curved=1;jumpStyle=arc;html=1;exitX=0;exitY=1;exitDx=0;exitDy=0;fontSize=7;fontColor=#CC0066;startArrow=none;" parent="68" source="62" target="15" edge="1">
                    <mxGeometry relative="1" as="geometry"/>
                </mxCell>
                <mxCell id="62" value="&lt;font color=&quot;#003300&quot; style=&quot;font-size: 9px;&quot;&gt;Bio&lt;br&gt;Chem&lt;br&gt;&lt;/font&gt;" style="ellipse;whiteSpace=wrap;html=1;aspect=fixed;fillColor=#ffcd28;gradientColor=#ffa500;strokeColor=#d79b00;gradientDirection=radial;" parent="68" vertex="1">
                    <mxGeometry x="120" width="40" height="40" as="geometry"/>
                </mxCell>
                <mxCell id="71" value="" style="edgeStyle=none;html=1;exitX=1;exitY=0.5;exitDx=0;exitDy=0;entryX=0;entryY=0.5;entryDx=0;entryDy=0;fontColor=#000000;endArrow=none;" parent="1" source="8" target="9" edge="1">
                    <mxGeometry relative="1" as="geometry">
                        <mxPoint x="160" y="570" as="sourcePoint"/>
                        <mxPoint x="400" y="560" as="targetPoint"/>
                    </mxGeometry>
                </mxCell>
                <mxCell id="73" style="edgeStyle=none;curved=1;jumpStyle=arc;html=1;exitX=1;exitY=1;exitDx=0;exitDy=0;fontSize=7;fontColor=#CC0000;startArrow=oval;startFill=0;targetPerimeterSpacing=0;strokeWidth=2;" parent="1" source="9" target="16" edge="1">
                    <mxGeometry relative="1" as="geometry">
                        <Array as="points">
                            <mxPoint x="370" y="820"/>
                        </Array>
                    </mxGeometry>
                </mxCell>
                <mxCell id="76" style="edgeStyle=none;curved=1;jumpStyle=arc;html=1;exitX=0;exitY=1;exitDx=0;exitDy=0;strokeWidth=2;fontSize=7;fontColor=#FF3333;startArrow=oval;startFill=0;targetPerimeterSpacing=0;" parent="1" source="9" target="13" edge="1">
                    <mxGeometry relative="1" as="geometry">
                        <Array as="points">
                            <mxPoint x="220" y="670"/>
                        </Array>
                    </mxGeometry>
                </mxCell>
                <mxCell id="9" value="&lt;font color=&quot;#cc0000&quot;&gt;Transportation&lt;br&gt;Overhaul&lt;/font&gt;" style="ellipse;whiteSpace=wrap;html=1;fillColor=#e6d0de;strokeColor=#996185;gradientColor=#d5739d;gradientDirection=radial;" parent="1" vertex="1">
                    <mxGeometry x="230" y="520" width="80" height="80" as="geometry"/>
                </mxCell>
                <mxCell id="74" style="edgeStyle=none;curved=1;jumpStyle=arc;html=1;exitX=0;exitY=0.5;exitDx=0;exitDy=0;entryX=1;entryY=0.5;entryDx=0;entryDy=0;strokeWidth=2;fontSize=7;fontColor=#CC0000;startArrow=oval;startFill=0;targetPerimeterSpacing=0;" parent="1" source="5" target="4" edge="1">
                    <mxGeometry relative="1" as="geometry"/>
                </mxCell>
                <mxCell id="75" value="" style="edgeStyle=none;curved=1;jumpStyle=arc;html=1;exitX=1;exitY=0;exitDx=0;exitDy=0;entryX=0;entryY=1;entryDx=0;entryDy=0;fontSize=7;fontColor=#4C0099;endArrow=none;" parent="1" source="12" target="13" edge="1">
                    <mxGeometry relative="1" as="geometry">
                        <mxPoint x="208.2842712474619" y="801.7157287525381" as="sourcePoint"/>
                        <mxPoint x="411.71572875253787" y="588.2842712474621" as="targetPoint"/>
                    </mxGeometry>
                </mxCell>
                <mxCell id="13" value="&lt;font color=&quot;#ff3333&quot;&gt;Planetary&lt;br&gt;Defense&lt;/font&gt;" style="ellipse;whiteSpace=wrap;html=1;gradientColor=#000000;gradientDirection=radial;fillColor=#FFFFFF;" parent="1" vertex="1">
                    <mxGeometry x="250" y="670" width="80" height="80" as="geometry"/>
                </mxCell>
                <mxCell id="81" value="" style="edgeStyle=none;html=1;exitX=0.5;exitY=0;exitDx=0;exitDy=0;entryX=0.5;entryY=1;entryDx=0;entryDy=0;fontColor=#000000;endArrow=none;" parent="1" source="10" target="11" edge="1">
                    <mxGeometry relative="1" as="geometry">
                        <mxPoint x="440" y="939.9999999999998" as="sourcePoint"/>
                        <mxPoint x="440" y="599.9999999999998" as="targetPoint"/>
                    </mxGeometry>
                </mxCell>
                <mxCell id="11" value="&lt;font color=&quot;#ff9933&quot;&gt;Nuclear&lt;br&gt;Production&lt;/font&gt;" style="ellipse;whiteSpace=wrap;html=1;fillColor=#d5e8d4;strokeColor=#82b366;gradientColor=#00CC00;gradientDirection=radial;" parent="1" vertex="1">
                    <mxGeometry x="400" y="680" width="80" height="80" as="geometry"/>
                </mxCell>
                <mxCell id="83" style="edgeStyle=none;curved=1;jumpStyle=arc;html=1;strokeWidth=2;fontSize=7;fontColor=#FF9933;startArrow=oval;startFill=0;targetPerimeterSpacing=0;entryX=0.992;entryY=0.585;entryDx=0;entryDy=0;entryPerimeter=0;exitX=0.651;exitY=0.827;exitDx=0;exitDy=0;exitPerimeter=0;" parent="1" source="17" target="10" edge="1">
                    <mxGeometry relative="1" as="geometry">
                        <mxPoint x="500" y="800" as="targetPoint"/>
                        <mxPoint x="740" y="420" as="sourcePoint"/>
                        <Array as="points">
                            <mxPoint x="860" y="780"/>
                        </Array>
                    </mxGeometry>
                </mxCell>
                <mxCell id="85" value="&lt;font color=&quot;#663300&quot;&gt;Flora&lt;br&gt;Fusion&lt;br&gt;&lt;/font&gt;" style="ellipse;whiteSpace=wrap;html=1;fillColor=#d5e8d4;strokeColor=#82b366;gradientColor=#00CC66;gradientDirection=radial;" parent="1" vertex="1">
                    <mxGeometry x="1550" y="120" width="80" height="80" as="geometry"/>
                </mxCell>
                <mxCell id="87" value="&lt;div style=&quot;&quot;&gt;Verdure&lt;br&gt;Vault&lt;/div&gt;" style="ellipse;whiteSpace=wrap;html=1;fillColor=#d5e8d4;strokeColor=#82b366;gradientColor=#00CC66;gradientDirection=radial;align=center;" parent="1" vertex="1">
                    <mxGeometry x="1550" y="220" width="80" height="80" as="geometry"/>
                </mxCell>
                <mxCell id="88" value="&lt;div style=&quot;&quot;&gt;Sylvan&lt;br&gt;Sphere&lt;/div&gt;" style="ellipse;whiteSpace=wrap;html=1;fillColor=#d5e8d4;strokeColor=#82b366;gradientColor=#00CC66;gradientDirection=radial;align=center;" parent="1" vertex="1">
                    <mxGeometry x="1550" y="330" width="80" height="80" as="geometry"/>
                </mxCell>
                <mxCell id="89" value="&quot;Wood Sphere&quot;&lt;br&gt;Maybe &quot;Wood&quot; construction?" style="whiteSpace=wrap;html=1;labelBackgroundColor=none;fontSize=7;fontColor=#FF9933;fillColor=#FFFFFF;gradientColor=#00CC00;gradientDirection=radial;" parent="1" vertex="1">
                    <mxGeometry x="1440" y="340" width="100" height="30" as="geometry"/>
                </mxCell>
                <mxCell id="92" value="" style="edgeStyle=none;curved=1;jumpStyle=arc;html=1;strokeWidth=2;fontSize=7;fontColor=#FF9933;startArrow=oval;startFill=0;targetPerimeterSpacing=0;" parent="1" source="90" target="91" edge="1">
                    <mxGeometry relative="1" as="geometry"/>
                </mxCell>
                <mxCell id="90" value="&lt;div style=&quot;&quot;&gt;Hydrofluent&lt;/div&gt;" style="ellipse;whiteSpace=wrap;html=1;fillColor=#33FFFF;strokeColor=#6c8ebf;gradientColor=#000066;gradientDirection=radial;align=center;" parent="1" vertex="1">
                    <mxGeometry x="1550" y="440" width="80" height="80" as="geometry"/>
                </mxCell>
                <mxCell id="91" value="Potential name for hydroponics?" style="whiteSpace=wrap;html=1;fillColor=#33FFFF;strokeColor=#6c8ebf;gradientColor=#000066;gradientDirection=radial;" parent="1" vertex="1">
                    <mxGeometry x="1370" y="450" width="170" height="40" as="geometry"/>
                </mxCell>
                <mxCell id="95" value="" style="edgeStyle=none;curved=1;jumpStyle=arc;html=1;strokeWidth=2;fontSize=7;fontColor=#FF9933;startArrow=oval;startFill=0;targetPerimeterSpacing=0;" parent="1" source="93" target="94" edge="1">
                    <mxGeometry relative="1" as="geometry"/>
                </mxCell>
                <mxCell id="93" value="Metal&lt;br&gt;Morphix" style="ellipse;whiteSpace=wrap;html=1;gradientDirection=radial;fillColor=#FF0000;strokeColor=#d6b656;gradientColor=#994C00;fontColor=#000000;" parent="1" vertex="1">
                    <mxGeometry x="160" y="350" width="60" height="60" as="geometry"/>
                </mxCell>
                <mxCell id="94" value="Advanced&lt;br&gt;Metallurgy?" style="rhombus;whiteSpace=wrap;html=1;fillColor=#FF0000;strokeColor=#d6b656;fontColor=#000000;gradientDirection=radial;gradientColor=#994C00;" parent="1" vertex="1">
                    <mxGeometry x="90" y="355" width="50" height="50" as="geometry"/>
                </mxCell>
                <mxCell id="35" style="edgeStyle=none;curved=1;jumpStyle=arc;html=1;exitX=0;exitY=0;exitDx=0;exitDy=0;fontSize=9;fontColor=#003300;" parent="1" source="5" target="34" edge="1">
                    <mxGeometry relative="1" as="geometry"/>
                </mxCell>
                <mxCell id="98" value="" style="group" parent="1" vertex="1" connectable="0">
                    <mxGeometry x="590" y="260" width="220" height="200" as="geometry"/>
                </mxCell>
                <mxCell id="17" value="Periodic&lt;br&gt;Madness" style="ellipse;whiteSpace=wrap;html=1;fillColor=#9933FF;fontColor=#ffffff;strokeColor=#FFFFFF;gradientColor=#330066;strokeWidth=2;perimeterSpacing=21;gradientDirection=radial;container=0;" parent="98" vertex="1">
                    <mxGeometry x="60" y="60" width="80" height="80" as="geometry"/>
                </mxCell>
                <mxCell id="32" style="edgeStyle=none;html=1;exitX=1;exitY=1;exitDx=0;exitDy=0;entryX=0.379;entryY=0.175;entryDx=0;entryDy=0;entryPerimeter=0;fontColor=#007FFF;" parent="98" source="30" target="17" edge="1">
                    <mxGeometry relative="1" as="geometry"/>
                </mxCell>
                <mxCell id="30" value="&lt;font color=&quot;#007fff&quot;&gt;Petro&lt;br&gt;Chem&lt;/font&gt;" style="ellipse;whiteSpace=wrap;html=1;aspect=fixed;fillColor=#dae8fc;gradientColor=#7ea6e0;strokeColor=#6c8ebf;gradientDirection=radial;container=0;" parent="98" vertex="1">
                    <mxGeometry x="40" width="40" height="40" as="geometry"/>
                </mxCell>
                <mxCell id="34" value="&lt;font color=&quot;#003300&quot; style=&quot;font-size: 9px;&quot;&gt;Circuitry&lt;/font&gt;" style="ellipse;whiteSpace=wrap;html=1;aspect=fixed;fillColor=#99FFFF;gradientColor=#66FFB3;strokeColor=#82b366;gradientDirection=radial;container=0;" parent="98" vertex="1">
                    <mxGeometry x="180" y="140" width="40" height="40" as="geometry"/>
                </mxCell>
                <mxCell id="46" value="&lt;font color=&quot;#ffffff&quot;&gt;transitional&lt;br&gt;metals&lt;/font&gt;" style="ellipse;whiteSpace=wrap;html=1;aspect=fixed;fillColor=#00FF80;gradientColor=#660066;strokeColor=#666666;gradientDirection=radial;container=0;" parent="98" vertex="1">
                    <mxGeometry y="140" width="60" height="60" as="geometry"/>
                </mxCell>
                <mxCell id="36" style="edgeStyle=none;curved=1;jumpStyle=arc;html=1;exitX=0;exitY=0;exitDx=0;exitDy=0;entryX=0.828;entryY=0.664;entryDx=0;entryDy=0;entryPerimeter=0;fontSize=9;fontColor=#003300;" parent="98" source="34" target="17" edge="1">
                    <mxGeometry relative="1" as="geometry"/>
                </mxCell>
                <mxCell id="99" value="Molten&lt;br&gt;Core&lt;br&gt;Refining" style="ellipse;whiteSpace=wrap;html=1;gradientDirection=radial;fillColor=#FF0000;strokeColor=#d6b656;gradientColor=#994C00;fontColor=#000000;" parent="1" vertex="1">
                    <mxGeometry x="100" y="410" width="60" height="60" as="geometry"/>
                </mxCell>
                <mxCell id="100" value="Sky Atlas&lt;br&gt;Mining" style="ellipse;whiteSpace=wrap;html=1;gradientDirection=radial;fillColor=#FF0000;strokeColor=#d6b656;gradientColor=#994C00;fontColor=#000000;" parent="1" vertex="1">
                    <mxGeometry x="85" y="620" width="60" height="60" as="geometry"/>
                </mxCell>
                <mxCell id="101" value="Alloy&lt;br&gt;Architects" style="ellipse;whiteSpace=wrap;html=1;gradientDirection=radial;fillColor=#FF0000;strokeColor=#d6b656;gradientColor=#994C00;fontColor=#000000;" parent="1" vertex="1">
                    <mxGeometry x="25" y="450" width="60" height="60" as="geometry"/>
                </mxCell>
                <mxCell id="102" value="PulsePath&lt;br&gt;Transport" style="ellipse;whiteSpace=wrap;html=1;gradientDirection=radial;fillColor=#FFFF00;strokeColor=#d6b656;gradientColor=#333300;fontColor=#000000;" parent="1" vertex="1">
                    <mxGeometry x="300" y="460" width="60" height="60" as="geometry"/>
                </mxCell>
                <mxCell id="103" value="Truck&lt;br&gt;Ways" style="ellipse;whiteSpace=wrap;html=1;gradientDirection=radial;fillColor=#FFFF00;strokeColor=#d6b656;gradientColor=#333300;fontColor=#000000;" vertex="1" parent="1">
                    <mxGeometry x="250" y="470" width="40" height="40" as="geometry"/>
                </mxCell>
                <mxCell id="104" value="Mining&lt;br&gt;Command" style="ellipse;whiteSpace=wrap;html=1;gradientDirection=radial;fillColor=#FFFF00;strokeColor=#d6b656;gradientColor=#333300;fontColor=#000000;" vertex="1" parent="1">
                    <mxGeometry x="320" y="160" width="60" height="60" as="geometry"/>
                </mxCell>
                <mxCell id="105" value="&lt;font color=&quot;#cc0066&quot;&gt;&lt;b&gt;Bio&lt;br&gt;Works&lt;/b&gt;&lt;/font&gt;" style="ellipse;whiteSpace=wrap;html=1;fillColor=#00FF80;fontColor=#ffffff;strokeColor=#3700CC;gradientColor=#009900;gradientDirection=radial;" vertex="1" parent="1">
                    <mxGeometry x="670" y="490" width="40" height="40" as="geometry"/>
                </mxCell>
                <mxCell id="106" value="&lt;font color=&quot;#cc0066&quot;&gt;&lt;b&gt;Bio&lt;br&gt;Storm&lt;/b&gt;&lt;/font&gt;" style="ellipse;whiteSpace=wrap;html=1;fillColor=#00FF80;fontColor=#ffffff;strokeColor=#3700CC;gradientColor=#009900;gradientDirection=radial;" vertex="1" parent="1">
                    <mxGeometry x="680" y="585" width="40" height="40" as="geometry"/>
                </mxCell>
                <mxCell id="107" value="&lt;p style=&quot;line-height: 100%; font-size: 5px;&quot;&gt;&lt;font color=&quot;#006600&quot; style=&quot;font-size: 5px;&quot;&gt;&lt;font style=&quot;font-size: 5px;&quot;&gt;&lt;b style=&quot;&quot;&gt;Farm&lt;br&gt;&lt;/b&gt;&lt;/font&gt;Master&lt;/font&gt;&lt;br&gt;&lt;/p&gt;" style="ellipse;whiteSpace=wrap;html=1;fillColor=#00FF80;fontColor=#ffffff;strokeColor=#3700CC;gradientColor=#009999;gradientDirection=radial;" vertex="1" parent="1">
                    <mxGeometry x="880" y="430" width="20" height="20" as="geometry"/>
                </mxCell>
                <mxCell id="114" style="edgeStyle=none;html=1;exitX=1;exitY=0;exitDx=0;exitDy=0;entryX=0;entryY=0.5;entryDx=0;entryDy=0;fontSize=5;fontColor=#006600;rounded=0;strokeWidth=0;" edge="1" parent="1" source="108" target="113">
                    <mxGeometry relative="1" as="geometry"/>
                </mxCell>
                <mxCell id="108" value="&lt;font color=&quot;#cc0066&quot;&gt;&lt;b&gt;Bio&lt;br&gt;View&lt;br&gt;&lt;/b&gt;&lt;/font&gt;" style="ellipse;whiteSpace=wrap;html=1;fillColor=#00FF80;fontColor=#ffffff;strokeColor=#3700CC;gradientColor=#009900;gradientDirection=radial;" vertex="1" parent="1">
                    <mxGeometry x="560" y="490" width="40" height="40" as="geometry"/>
                </mxCell>
                <mxCell id="113" value="A view on the possible&lt;br&gt;Bilogical Damages to the environment." style="whiteSpace=wrap;html=1;labelBackgroundColor=none;fontSize=7;fontColor=#FF9933;fillColor=#FFFFFF;gradientColor=#00CC00;gradientDirection=radial;" vertex="1" parent="1">
                    <mxGeometry x="827" y="330" width="100" height="30" as="geometry"/>
                </mxCell>
                <mxCell id="115" value="&lt;font color=&quot;#3333ff&quot;&gt;Solar&lt;br&gt;Age&lt;br&gt;&lt;/font&gt;" style="ellipse;whiteSpace=wrap;html=1;fillColor=#fff2cc;strokeColor=#d6b656;gradientColor=#ffd966;gradientDirection=radial;" vertex="1" parent="1">
                    <mxGeometry x="500" y="860" width="40" height="40" as="geometry"/>
                </mxCell>
            </root>
        </mxGraphModel>
    </diagram>
</mxfile>